<?xml version="1.0" encoding="UTF-8"?>
<svg width="100" height="100" viewBox="0 0 100 100" xmlns="http://www.w3.org/2000/svg">
    <!-- Background Circle -->
    <circle cx="50" cy="50" r="45" fill="#e3f2fd"/>
    
    <!-- Speech Bubbles -->
    <path d="M30 40 Q30 30 40 30 H60 Q70 30 70 40 V50 Q70 60 60 60 H40 Q30 60 30 50 V40" fill="#2196f3"/>
    <path d="M35 65 Q35 55 45 55 H65 Q75 55 75 65 V75 Q75 85 65 85 H45 Q35 85 35 75 V65" fill="#1976d2"/>
    
    <!-- Text Lines -->
    <line x1="35" y1="40" x2="65" y2="40" stroke="white" stroke-width="2"/>
    <line x1="35" y1="50" x2="55" y2="50" stroke="white" stroke-width="2"/>
    <line x1="40" y1="65" x2="70" y2="65" stroke="white" stroke-width="2"/>
    <line x1="40" y1="75" x2="60" y2="75" stroke="white" stroke-width="2"/>
    
    <!-- Connection Line -->
    <path d="M50 60 L50 55" stroke="#1976d2" stroke-width="2"/>
</svg> 